<svg width="24" height="25" viewBox="0 0 24 25" fill="none" xmlns="http://www.w3.org/2000/svg">
<g clip-path="url(#clip0_2259_54782)">
<rect width="24" height="24" transform="translate(0 0.5)" fill="white" fill-opacity="0.01"/>
<path d="M9.66 17.9C9.92 17.9 10.135 17.815 10.305 17.645C10.475 17.475 10.56 17.26 10.56 17V13.94H13.62C13.88 13.94 14.095 13.855 14.265 13.685C14.435 13.515 14.52 13.3 14.52 13.04C14.52 12.78 14.435 12.565 14.265 12.395C14.095 12.225 13.88 12.14 13.62 12.14H10.56V9.08C10.56 8.82 10.475 8.605 10.305 8.435C10.135 8.265 9.92 8.18 9.66 8.18C9.4 8.18 9.185 8.265 9.015 8.435C8.845 8.605 8.76 8.82 8.76 9.08V12.14H5.7C5.44 12.14 5.225 12.225 5.055 12.395C4.885 12.565 4.8 12.78 4.8 13.04C4.8 13.3 4.885 13.515 5.055 13.685C5.225 13.855 5.44 13.94 5.7 13.94H8.76V17C8.76 17.26 8.845 17.475 9.015 17.645C9.185 17.815 9.4 17.9 9.66 17.9ZM1.8 22.7C1.32 22.7 0.9 22.52 0.54 22.16C0.18 21.8 0 21.38 0 20.9V5.3C0 4.82 0.18 4.4 0.54 4.04C0.9 3.68 1.32 3.5 1.8 3.5H17.4C17.88 3.5 18.3 3.68 18.66 4.04C19.02 4.4 19.2 4.82 19.2 5.3V11.75L23.22 7.73C23.38 7.57 23.55 7.53 23.73 7.61C23.91 7.69 24 7.83 24 8.03V18.17C24 18.37 23.91 18.51 23.73 18.59C23.55 18.67 23.38 18.63 23.22 18.47L19.2 14.45V20.9C19.2 21.38 19.02 21.8 18.66 22.16C18.3 22.52 17.88 22.7 17.4 22.7H1.8Z" fill="white"/>
</g>
<defs>
<clipPath id="clip0_2259_54782">
<rect width="24" height="24" fill="white" transform="translate(0 0.5)"/>
</clipPath>
</defs>
</svg>
