<svg width="64" height="64" viewBox="0 0 64 64" fill="none" xmlns="http://www.w3.org/2000/svg">
<g clip-path="url(#clip0_2612_163474)">
<path d="M63.9999 32.1961C63.9999 14.4121 49.6719 -0.00390625 31.9999 -0.00390625C14.3199 9.37502e-05 -0.00805664 14.4121 -0.00805664 32.2001C-0.00805664 48.2681 11.6959 61.5881 26.9919 64.0041V41.5041H18.8719V32.2001H26.9999V25.1001C26.9999 17.0321 31.7799 12.5761 39.0879 12.5761C42.5919 12.5761 46.2519 13.2041 46.2519 13.2041V21.1241H42.2159C38.2439 21.1241 37.0039 23.6081 37.0039 26.1561V32.1961H45.8759L44.4599 41.5001H36.9999V64.0001C52.2959 61.5841 63.9999 48.2641 63.9999 32.1961Z" fill="#3B5999"/>
</g>
<defs>
<clipPath id="clip0_2612_163474">
<rect width="64" height="64" fill="white"/>
</clipPath>
</defs>
</svg>
