<svg width="16" height="16" viewBox="0 0 16 16" fill="none" xmlns="http://www.w3.org/2000/svg">
<path d="M7.95059 16C6.01022 16 4.36669 15.3267 3.02002 13.98C1.67334 12.6333 1 10.9898 1 9.04941C1 7.36968 1.51767 5.74064 2.55302 4.16227C3.58837 2.58391 5.01107 1.23723 6.82112 0.122241C7.06729 -0.037043 7.31707 -0.0406629 7.57048 0.111381C7.82389 0.263425 7.95059 0.491492 7.95059 0.79558V2.35946C7.95059 2.8518 8.12074 3.26449 8.46103 3.59754C8.80132 3.93059 9.21763 4.09711 9.70996 4.09711C9.97061 4.09711 10.2132 4.04281 10.4376 3.93421C10.662 3.8256 10.8612 3.6627 11.0349 3.44549C11.1508 3.31517 11.2811 3.22467 11.4259 3.17399C11.5707 3.1233 11.7083 3.14141 11.8386 3.22829C12.7943 3.87991 13.5436 4.71977 14.0867 5.74788C14.6297 6.77599 14.9012 7.8765 14.9012 9.04941C14.9012 10.9898 14.2278 12.6333 12.8812 13.98C11.5345 15.3267 9.89097 16 7.95059 16ZM2.30324 9.04941C2.30324 9.96167 2.50958 10.8196 2.92227 11.6233C3.33496 12.427 3.91056 13.0967 4.64906 13.6325C4.59114 13.4587 4.5477 13.2813 4.51874 13.1003C4.48978 12.9193 4.4753 12.7419 4.4753 12.5681C4.4753 12.1048 4.56218 11.6704 4.73594 11.2649C4.90971 10.8595 5.16312 10.4902 5.49616 10.1572L7.95059 7.74617L10.405 10.1572C10.7381 10.4902 10.9915 10.8595 11.1652 11.2649C11.339 11.6704 11.4259 12.1048 11.4259 12.5681C11.4259 12.7419 11.4114 12.9193 11.3824 13.1003C11.3535 13.2813 11.31 13.4587 11.2521 13.6325C11.9906 13.0967 12.5662 12.427 12.9789 11.6233C13.3916 10.8196 13.5979 9.96167 13.5979 9.04941C13.5979 8.26747 13.4314 7.50363 13.0984 6.75788C12.7653 6.01214 12.2875 5.32795 11.6648 4.70529C11.3607 4.92249 11.0422 5.09264 10.7091 5.21572C10.3761 5.33881 10.043 5.40035 9.70996 5.40035C8.82666 5.40035 8.0954 5.09988 7.51618 4.49894C6.93696 3.89801 6.64736 3.1414 6.64736 2.22914V1.79473C5.31516 2.75043 4.25809 3.88353 3.47615 5.194C2.69421 6.50448 2.30324 7.78961 2.30324 9.04941ZM7.95059 9.5707L6.40843 11.0911C6.2057 11.2939 6.05004 11.5183 5.94144 11.7645C5.83283 12.0107 5.77853 12.2785 5.77853 12.5681C5.77853 13.1618 5.9885 13.665 6.40843 14.0777C6.82836 14.4904 7.34242 14.6968 7.95059 14.6968C8.55877 14.6968 9.07282 14.4904 9.49275 14.0777C9.91269 13.665 10.1227 13.1618 10.1227 12.5681C10.1227 12.2785 10.0684 12.0107 9.95975 11.7645C9.85115 11.5183 9.69548 11.2939 9.49275 11.0911L7.95059 9.5707Z" fill="black"/>
</svg>
