<svg width="24" height="25" viewBox="0 0 24 25" fill="none" xmlns="http://www.w3.org/2000/svg">
<g clip-path="url(#clip0_2259_54788)">
<rect width="24" height="24" transform="translate(0 0.5)" fill="white" fill-opacity="0.01"/>
<g clip-path="url(#clip1_2259_54788)">
<path d="M16.5 9.5C16.5 10.6935 16.0259 11.8381 15.182 12.682C14.3381 13.5259 13.1935 14 12 14C10.8065 14 9.66193 13.5259 8.81802 12.682C7.97411 11.8381 7.5 10.6935 7.5 9.5C7.5 8.30653 7.97411 7.16193 8.81802 6.31802C9.66193 5.47411 10.8065 5 12 5C13.1935 5 14.3381 5.47411 15.182 6.31802C16.0259 7.16193 16.5 8.30653 16.5 9.5Z" fill="white"/>
<path fill-rule="evenodd" clip-rule="evenodd" d="M0 12.5C0 9.3174 1.26428 6.26516 3.51472 4.01472C5.76516 1.76428 8.8174 0.5 12 0.5C15.1826 0.5 18.2348 1.76428 20.4853 4.01472C22.7357 6.26516 24 9.3174 24 12.5C24 15.6826 22.7357 18.7348 20.4853 20.9853C18.2348 23.2357 15.1826 24.5 12 24.5C8.8174 24.5 5.76516 23.2357 3.51472 20.9853C1.26428 18.7348 0 15.6826 0 12.5ZM12 2C10.0227 2.00011 8.08555 2.55854 6.4116 3.61104C4.73766 4.66354 3.39492 6.16732 2.53795 7.94929C1.68097 9.73127 1.34458 11.719 1.5675 13.6837C1.79042 15.6485 2.56358 17.5103 3.798 19.055C4.863 17.339 7.2075 15.5 12 15.5C16.7925 15.5 19.1355 17.3375 20.202 19.055C21.4364 17.5103 22.2096 15.6485 22.4325 13.6837C22.6554 11.719 22.319 9.73127 21.4621 7.94929C20.6051 6.16732 19.2623 4.66354 17.5884 3.61104C15.9145 2.55854 13.9773 2.00011 12 2Z" fill="white"/>
</g>
</g>
<defs>
<clipPath id="clip0_2259_54788">
<rect width="24" height="24" fill="white" transform="translate(0 0.5)"/>
</clipPath>
<clipPath id="clip1_2259_54788">
<rect width="24" height="24" fill="white" transform="translate(0 0.5)"/>
</clipPath>
</defs>
</svg>
