<svg width="33" height="32" viewBox="0 0 33 32" fill="none" xmlns="http://www.w3.org/2000/svg">
<path d="M21.6182 17.5001L16.5848 12.4667C16.4737 12.3556 16.396 12.2445 16.3515 12.1334C16.3071 12.0223 16.2848 11.9001 16.2848 11.7667C16.2848 11.6334 16.3071 11.5112 16.3515 11.4001C16.396 11.289 16.4737 11.1778 16.5848 11.0667L21.6515 6.00006C21.8293 5.82229 22.0515 5.7334 22.3182 5.7334C22.5848 5.7334 22.8182 5.8334 23.0182 6.0334C23.2182 6.2334 23.3182 6.46673 23.3182 6.7334C23.3182 7.00007 23.2182 7.2334 23.0182 7.4334L19.6848 10.7667H29.2182C29.5071 10.7667 29.746 10.8612 29.9348 11.0501C30.1237 11.239 30.2182 11.4778 30.2182 11.7667C30.2182 12.0556 30.1237 12.2945 29.9348 12.4834C29.746 12.6723 29.5071 12.7667 29.2182 12.7667H19.6848L23.0515 16.1334C23.2293 16.3112 23.3182 16.5334 23.3182 16.8001C23.3182 17.0667 23.2182 17.3001 23.0182 17.5001C22.8182 17.7001 22.5848 17.8001 22.3182 17.8001C22.0515 17.8001 21.8182 17.7001 21.6182 17.5001ZM10.7515 25.9667C10.9515 26.1667 11.1848 26.2667 11.4515 26.2667C11.7182 26.2667 11.9515 26.1667 12.1515 25.9667L17.1848 20.9334C17.296 20.8223 17.3737 20.7112 17.4182 20.6001C17.4626 20.489 17.4848 20.3667 17.4848 20.2334C17.4848 20.1001 17.4626 19.9778 17.4182 19.8667C17.3737 19.7556 17.296 19.6445 17.1848 19.5334L12.1182 14.4667C11.9404 14.289 11.7182 14.2001 11.4515 14.2001C11.1848 14.2001 10.9515 14.3001 10.7515 14.5001C10.5515 14.7001 10.4515 14.9334 10.4515 15.2001C10.4515 15.4667 10.5515 15.7001 10.7515 15.9001L14.0848 19.2334H4.55151C4.26262 19.2334 4.02374 19.3278 3.83485 19.5167C3.64596 19.7056 3.55151 19.9445 3.55151 20.2334C3.55151 20.5223 3.64596 20.7612 3.83485 20.9501C4.02374 21.139 4.26262 21.2334 4.55151 21.2334H14.0848L10.7182 24.6001C10.5404 24.7778 10.4515 25.0001 10.4515 25.2667C10.4515 25.5334 10.5515 25.7667 10.7515 25.9667Z" fill="#6C757D"/>
</svg>
