<svg width="65" height="64" viewBox="0 0 65 64" fill="none" xmlns="http://www.w3.org/2000/svg">
<g clip-path="url(#clip0_2259_49987)">
<path d="M61.1974 2.50983L36.2249 21.0573L40.8429 10.1145L61.1974 2.50983Z" fill="#E2761B" stroke="#E2761B" stroke-linecap="round" stroke-linejoin="round"/>
<path d="M3.54716 2.50983L28.3189 21.233L23.9268 10.1145L3.54716 2.50983ZM52.2123 45.5028L45.5613 55.6926L59.7919 59.6079L63.8828 45.7286L52.2123 45.5028ZM0.911865 45.7286L4.97775 59.6079L19.2083 55.6926L12.5574 45.5028L0.911865 45.7286Z" fill="#E4761B" stroke="#E4761B" stroke-linecap="round" stroke-linejoin="round"/>
<path d="M18.4052 28.2855L14.4397 34.2839L28.5699 34.9114L28.0679 19.7271L18.4052 28.2855ZM46.3393 28.2855L36.5511 19.5514L36.2248 34.9114L50.3299 34.2839L46.3393 28.2855ZM19.2083 55.6926L27.6915 51.5514L20.3628 45.829L19.2083 55.6926ZM37.053 51.5514L45.5613 55.6926L44.3817 45.829L37.053 51.5514Z" fill="#E4761B" stroke="#E4761B" stroke-linecap="round" stroke-linejoin="round"/>
<path d="M45.5612 55.6926L37.053 51.5514L37.7306 57.0981L37.6553 59.4322L45.5612 55.6926ZM19.2083 55.6926L27.1141 59.4322L27.0639 57.0981L27.6914 51.5514L19.2083 55.6926Z" fill="#D7C1B3" stroke="#D7C1B3" stroke-linecap="round" stroke-linejoin="round"/>
<path d="M27.2398 42.1647L20.1621 40.0816L25.1566 37.7977L27.2398 42.1647ZM37.5049 42.1647L39.588 37.7977L44.6076 40.0816L37.5049 42.1647Z" fill="#233447" stroke="#233447" stroke-linecap="round" stroke-linejoin="round"/>
<path d="M19.2084 55.6926L20.4131 45.5028L12.5574 45.7286L19.2084 55.6926ZM44.3566 45.5028L45.5613 55.6926L52.2123 45.7286L44.3566 45.5028ZM50.3299 34.2839L36.2248 34.9114L37.5299 42.1647L39.6131 37.7977L44.6327 40.0816L50.3299 34.2839ZM20.1621 40.0816L25.1817 37.7977L27.2397 42.1647L28.5699 34.9114L14.4397 34.2839L20.1621 40.0816Z" fill="#CD6116" stroke="#CD6116" stroke-linecap="round" stroke-linejoin="round"/>
<path d="M14.4397 34.2839L20.3628 45.829L20.162 40.0816L14.4397 34.2839ZM44.6326 40.0816L44.3817 45.829L50.3299 34.2839L44.6326 40.0816ZM28.5699 34.9114L27.2397 42.1647L28.8962 50.7231L29.2726 39.4541L28.5699 34.9114ZM36.2248 34.9114L35.5471 39.429L35.8483 50.7231L37.5299 42.1647L36.2248 34.9114Z" fill="#E4751F" stroke="#E4751F" stroke-linecap="round" stroke-linejoin="round"/>
<path d="M37.53 42.1647L35.8484 50.7231L37.0531 51.5513L44.3817 45.829L44.6327 40.0815L37.53 42.1647ZM20.1621 40.0815L20.3629 45.829L27.6915 51.5513L28.8962 50.7231L27.2398 42.1647L20.1621 40.0815Z" fill="#F6851B" stroke="#F6851B" stroke-linecap="round" stroke-linejoin="round"/>
<path d="M37.6553 59.4322L37.7306 57.0981L37.1032 56.5459H27.6412L27.0639 57.0981L27.1141 59.4322L19.2083 55.6926L21.969 57.9514L27.5659 61.8416H37.1784L42.8004 57.9514L45.5612 55.6926L37.6553 59.4322Z" fill="#C0AD9E" stroke="#C0AD9E" stroke-linecap="round" stroke-linejoin="round"/>
<path d="M37.053 51.5514L35.8483 50.7231H28.8961L27.6914 51.5514L27.064 57.098L27.6412 56.5459H37.1032L37.7306 57.098L37.053 51.5514Z" fill="#161616" stroke="#161616" stroke-linecap="round" stroke-linejoin="round"/>
<path d="M62.2514 22.262L64.3848 12.022L61.1973 2.50983L37.053 20.4298L46.3393 28.2855L59.4656 32.1255L62.3769 28.7373L61.122 27.8337L63.1299 26.0016L61.5738 24.7969L63.5816 23.2659L62.2514 22.262ZM0.384766 12.022L2.5181 22.262L1.16281 23.2659L3.17065 24.7969L1.63967 26.0016L3.64751 27.8337L2.39261 28.7373L5.27888 32.1255L18.4052 28.2855L27.6914 20.4298L3.54712 2.50983L0.384766 12.022Z" fill="#763D16" stroke="#763D16" stroke-linecap="round" stroke-linejoin="round"/>
<path d="M59.4656 32.1255L46.3393 28.2855L50.3299 34.2839L44.3817 45.829L52.2123 45.7286H63.8828L59.4656 32.1255ZM18.4052 28.2855L5.27892 32.1255L0.911865 45.7286H12.5574L20.3628 45.829L14.4397 34.2839L18.4052 28.2855ZM36.2248 34.9114L37.053 20.4298L40.8679 10.1145H23.9268L27.6915 20.4298L28.5699 34.9114L28.8711 39.4792L28.8962 50.7231H35.8483L35.8985 39.4792L36.2248 34.9114Z" fill="#F6851B" stroke="#F6851B" stroke-linecap="round" stroke-linejoin="round"/>
</g>
<defs>
<clipPath id="clip0_2259_49987">
<rect width="64" height="64" fill="white" transform="translate(0.384766)"/>
</clipPath>
</defs>
</svg>
