<svg width="65" height="64" viewBox="0 0 65 64" fill="none" xmlns="http://www.w3.org/2000/svg">
<rect x="0.5" width="64" height="64" rx="32" fill="#F8F9FA"/>
<path d="M25.93 29.0839L23.186 31.8279C22.0607 32.9532 21.4285 34.4795 21.4285 36.0709C21.4285 37.6624 22.0607 39.1886 23.186 40.3139C24.3113 41.4392 25.8375 42.0714 27.429 42.0714C29.0204 42.0714 30.5467 41.4392 31.672 40.3139L35.328 36.6559C36.0066 35.9772 36.5124 35.1457 36.8032 34.231C37.0939 33.3164 37.1609 32.3453 36.9987 31.3994C36.8365 30.4535 36.4497 29.5603 35.8708 28.7947C35.292 28.0292 34.5379 27.4137 33.672 26.9999L32.5 28.1719C32.381 28.2911 32.2775 28.4248 32.192 28.5699C32.861 28.7623 33.4683 29.1259 33.9538 29.6248C34.4392 30.1238 34.7861 30.7408 34.96 31.4149C35.1339 32.089 35.1289 32.7968 34.9454 33.4683C34.762 34.1399 34.4065 34.7519 33.914 35.2439L30.26 38.8999C29.5094 39.6505 28.4914 40.0722 27.43 40.0722C26.3685 40.0722 25.3505 39.6505 24.6 38.8999C23.8494 38.1494 23.4278 37.1314 23.4278 36.0699C23.4278 35.0085 23.8494 33.9905 24.6 33.2399L26.186 31.6559C25.9622 30.8174 25.8758 29.9501 25.93 29.0839Z" fill="#6C757D"/>
<path d="M29.672 25.3439C28.9934 26.0226 28.4875 26.8542 28.1968 27.7688C27.9061 28.6835 27.839 29.6545 28.0013 30.6005C28.1635 31.5464 28.5503 32.4396 29.1291 33.2051C29.708 33.9706 30.462 34.5861 31.328 34.9999L32.878 33.4479C32.1999 33.266 31.5816 32.9089 31.0852 32.4123C30.5889 31.9158 30.232 31.2974 30.0504 30.6192C29.8688 29.941 29.8689 29.227 30.0507 28.5488C30.2324 27.8707 30.5895 27.2523 31.086 26.7559L34.74 23.0999C35.4905 22.3494 36.5085 21.9277 37.57 21.9277C38.6314 21.9277 39.6494 22.3494 40.4 23.0999C41.1505 23.8505 41.5722 24.8685 41.5722 25.9299C41.5722 26.9914 41.1505 28.0094 40.4 28.7599L38.814 30.3439C39.038 31.1839 39.124 32.0539 39.07 32.9179L41.814 30.1739C42.9393 29.0486 43.5715 27.5224 43.5715 25.9309C43.5715 24.3395 42.9393 22.8132 41.814 21.6879C40.6887 20.5626 39.1624 19.9304 37.571 19.9304C35.9795 19.9304 34.4533 20.5626 33.328 21.6879L29.672 25.3439Z" fill="#6C757D"/>
</svg>
