<svg width="64" height="52" viewBox="0 0 64 52" fill="none" xmlns="http://www.w3.org/2000/svg">
<circle cx="32" cy="26" r="26" fill="url(#paint0_linear_3_193135)"/>
<g filter="url(#filter0_d_3_193135)">
<path d="M24.9 43.35C22.2333 42.05 20.0833 40.125 18.45 37.575C16.8167 35.025 16 32.1667 16 29C16 25.1333 17.1917 21.3833 19.575 17.75C21.9583 14.1167 25.2333 11.0167 29.4 8.45C29.9667 8.08333 30.5417 8.075 31.125 8.425C31.7083 8.775 32 9.3 32 10V13.6C32 14.7333 32.3917 15.6833 33.175 16.45C33.9583 17.2167 34.9167 17.6 36.05 17.6C36.65 17.6 37.2083 17.475 37.725 17.225C38.2417 16.975 38.7 16.6 39.1 16.1C39.3667 15.8 39.6667 15.5917 40 15.475C40.3333 15.3583 40.65 15.4 40.95 15.6C43.15 17.1 44.875 19.0333 46.125 21.4C47.375 23.7667 48 26.3 48 29C48 32.1667 47.1833 35.025 45.55 37.575C43.9167 40.125 41.7667 42.05 39.1 43.35C39.8667 42.4833 40.4583 41.5167 40.875 40.45C41.2917 39.3833 41.5 38.2667 41.5 37.1C41.5 35.8333 41.2667 34.6417 40.8 33.525C40.3333 32.4083 39.65 31.4 38.75 30.5L32 23.9L25.3 30.5C24.3667 31.4 23.6667 32.4083 23.2 33.525C22.7333 34.6417 22.5 35.8333 22.5 37.1C22.5 38.2667 22.7083 39.3833 23.125 40.45C23.5417 41.5167 24.1333 42.4833 24.9 43.35ZM32 43.5C30.2 43.5 28.6667 42.875 27.4 41.625C26.1333 40.375 25.5 38.8667 25.5 37.1C25.5 36.2333 25.6583 35.4167 25.975 34.65C26.2917 33.8833 26.7667 33.2 27.4 32.6L32 28.1L36.6 32.6C37.2 33.2 37.6667 33.8833 38 34.65C38.3333 35.4167 38.5 36.2333 38.5 37.1C38.5 38.8667 37.8667 40.375 36.6 41.625C35.3333 42.875 33.8 43.5 32 43.5Z" fill="url(#paint1_linear_3_193135)"/>
<path d="M24.9 43.35C22.2333 42.05 20.0833 40.125 18.45 37.575C16.8167 35.025 16 32.1667 16 29C16 25.1333 17.1917 21.3833 19.575 17.75C21.9583 14.1167 25.2333 11.0167 29.4 8.45C29.9667 8.08333 30.5417 8.075 31.125 8.425C31.7083 8.775 32 9.3 32 10V13.6C32 14.7333 32.3917 15.6833 33.175 16.45C33.9583 17.2167 34.9167 17.6 36.05 17.6C36.65 17.6 37.2083 17.475 37.725 17.225C38.2417 16.975 38.7 16.6 39.1 16.1C39.3667 15.8 39.6667 15.5917 40 15.475C40.3333 15.3583 40.65 15.4 40.95 15.6C43.15 17.1 44.875 19.0333 46.125 21.4C47.375 23.7667 48 26.3 48 29C48 32.1667 47.1833 35.025 45.55 37.575C43.9167 40.125 41.7667 42.05 39.1 43.35C39.8667 42.4833 40.4583 41.5167 40.875 40.45C41.2917 39.3833 41.5 38.2667 41.5 37.1C41.5 35.8333 41.2667 34.6417 40.8 33.525C40.3333 32.4083 39.65 31.4 38.75 30.5L32 23.9L25.3 30.5C24.3667 31.4 23.6667 32.4083 23.2 33.525C22.7333 34.6417 22.5 35.8333 22.5 37.1C22.5 38.2667 22.7083 39.3833 23.125 40.45C23.5417 41.5167 24.1333 42.4833 24.9 43.35ZM32 43.5C30.2 43.5 28.6667 42.875 27.4 41.625C26.1333 40.375 25.5 38.8667 25.5 37.1C25.5 36.2333 25.6583 35.4167 25.975 34.65C26.2917 33.8833 26.7667 33.2 27.4 32.6L32 28.1L36.6 32.6C37.2 33.2 37.6667 33.8833 38 34.65C38.3333 35.4167 38.5 36.2333 38.5 37.1C38.5 38.8667 37.8667 40.375 36.6 41.625C35.3333 42.875 33.8 43.5 32 43.5Z" stroke="white" stroke-width="0.1"/>
</g>
<defs>
<filter id="filter0_d_3_193135" x="-0.0500031" y="-3.88139" width="64.1" height="67.4314" filterUnits="userSpaceOnUse" color-interpolation-filters="sRGB">
<feFlood flood-opacity="0" result="BackgroundImageFix"/>
<feColorMatrix in="SourceAlpha" type="matrix" values="0 0 0 0 0 0 0 0 0 0 0 0 0 0 0 0 0 0 127 0" result="hardAlpha"/>
<feOffset dy="4"/>
<feGaussianBlur stdDeviation="8"/>
<feColorMatrix type="matrix" values="0 0 0 0 0 0 0 0 0 0 0 0 0 0 0 0 0 0 0.15 0"/>
<feBlend mode="normal" in2="BackgroundImageFix" result="effect1_dropShadow_3_193135"/>
<feBlend mode="normal" in="SourceGraphic" in2="effect1_dropShadow_3_193135" result="shape"/>
</filter>
<linearGradient id="paint0_linear_3_193135" x1="13.7268" y1="1.37622" x2="66.6298" y2="34.8405" gradientUnits="userSpaceOnUse">
<stop stop-color="#9013FE"/>
<stop offset="1" stop-color="#6610F2"/>
</linearGradient>
<linearGradient id="paint1_linear_3_193135" x1="19.0268" y1="10.4941" x2="33.8285" y2="40.312" gradientUnits="userSpaceOnUse">
<stop stop-color="white"/>
<stop offset="1" stop-color="#F1E5FC"/>
</linearGradient>
</defs>
</svg>
