<svg width="24" height="25" viewBox="0 0 24 25" fill="none" xmlns="http://www.w3.org/2000/svg">
<g clip-path="url(#clip0_2259_54796)">
<rect width="24" height="24" transform="translate(0 0.5)" fill="white" fill-opacity="0.01"/>
<g clip-path="url(#clip1_2259_54796)">
<path d="M0 5C0 4.20435 0.316071 3.44129 0.87868 2.87868C1.44129 2.31607 2.20435 2 3 2H23.25C23.4489 2 23.6397 2.07902 23.7803 2.21967C23.921 2.36032 24 2.55109 24 2.75C24 2.94891 23.921 3.13968 23.7803 3.28033C23.6397 3.42098 23.4489 3.5 23.25 3.5H22.5V6.5C22.8978 6.5 23.2794 6.65804 23.5607 6.93934C23.842 7.22064 24 7.60218 24 8V20.75C24 21.3467 23.7629 21.919 23.341 22.341C22.919 22.7629 22.3467 23 21.75 23H3.75C2.75544 23 1.80161 22.6049 1.09835 21.9016C0.395088 21.1984 0 20.2446 0 19.25L0 5ZM1.5 7.598V19.25C1.5 19.8467 1.73705 20.419 2.15901 20.841C2.58097 21.2629 3.15326 21.5 3.75 21.5H21.75C21.9489 21.5 22.1397 21.421 22.2803 21.2803C22.421 21.1397 22.5 20.9489 22.5 20.75V8H3C2.47329 8.00069 1.95578 7.86199 1.5 7.598ZM1.5 5C1.5 5.39782 1.65804 5.77936 1.93934 6.06066C2.22064 6.34196 2.60218 6.5 3 6.5H21V3.5H3C2.60218 3.5 2.22064 3.65804 1.93934 3.93934C1.65804 4.22064 1.5 4.60218 1.5 5Z" fill="white"/>
</g>
</g>
<defs>
<clipPath id="clip0_2259_54796">
<rect width="24" height="24" fill="white" transform="translate(0 0.5)"/>
</clipPath>
<clipPath id="clip1_2259_54796">
<rect width="24" height="24" fill="white" transform="translate(0 0.5)"/>
</clipPath>
</defs>
</svg>
