<svg width="52" height="52" viewBox="0 0 52 52" fill="none" xmlns="http://www.w3.org/2000/svg">
<path fill-rule="evenodd" clip-rule="evenodd" d="M26 52C40.3594 52 52 40.3594 52 26C52 11.6406 40.3594 0 26 0C11.6406 0 0 11.6406 0 26C0 40.3594 11.6406 52 26 52ZM12.45 37.4064C14.0833 39.9564 16.2333 41.8814 18.9 43.1814C18.1333 42.3147 17.5417 41.3481 17.125 40.2814C16.7083 39.2147 16.5 38.0981 16.5 36.9314C16.5 35.6647 16.7333 34.4731 17.2 33.3564C17.6667 32.2397 18.3667 31.2314 19.3 30.3314L26 23.7314L32.75 30.3314C33.65 31.2314 34.3333 32.2397 34.8 33.3564C35.2667 34.4731 35.5 35.6647 35.5 36.9314C35.5 38.0981 35.2917 39.2147 34.875 40.2814C34.4583 41.3481 33.8667 42.3147 33.1 43.1814C35.7667 41.8814 37.9167 39.9564 39.55 37.4064C41.1833 34.8564 42 31.9981 42 28.8314C42 26.1314 41.375 23.5981 40.125 21.2314C38.875 18.8647 37.15 16.9314 34.95 15.4314C34.65 15.2314 34.3333 15.1897 34 15.3064C33.6667 15.4231 33.3667 15.6314 33.1 15.9314C32.7 16.4314 32.2417 16.8064 31.725 17.0564C31.2083 17.3064 30.65 17.4314 30.05 17.4314C28.9167 17.4314 27.9583 17.0481 27.175 16.2814C26.3917 15.5147 26 14.5647 26 13.4314V9.8314C26 9.1314 25.7083 8.6064 25.125 8.2564C24.5417 7.9064 23.9667 7.91473 23.4 8.28139C19.2333 10.8481 15.9583 13.9481 13.575 17.5814C11.1917 21.2147 10 24.9647 10 28.8314C10 31.9981 10.8167 34.8564 12.45 37.4064ZM21.4 41.4564C22.6667 42.7064 24.2 43.3314 26 43.3314C27.8 43.3314 29.3333 42.7064 30.6 41.4564C31.8667 40.2064 32.5 38.6981 32.5 36.9314C32.5 36.0647 32.3333 35.2481 32 34.4814C31.6667 33.7147 31.2 33.0314 30.6 32.4314L26 27.9314L21.4 32.4314C20.7667 33.0314 20.2917 33.7147 19.975 34.4814C19.6583 35.2481 19.5 36.0647 19.5 36.9314C19.5 38.6981 20.1333 40.2064 21.4 41.4564Z" fill="white"/>
</svg>
