<svg width="48" height="48" viewBox="0 0 48 48" fill="none" xmlns="http://www.w3.org/2000/svg">
<path d="M47.9995 23.999C47.9995 17.6338 45.4709 11.5293 40.9701 7.02846C36.4692 2.52759 30.3647 -0.000976562 23.9995 -0.000976562C17.6343 -0.000976562 11.5298 2.52759 7.02895 7.02846C2.52808 11.5293 -0.000488281 17.6338 -0.000488281 23.999C-0.000488281 30.3642 2.52808 36.4687 7.02895 40.9696C11.5298 45.4705 17.6343 47.999 23.9995 47.999C30.3647 47.999 36.4692 45.4705 40.9701 40.9696C45.4709 36.4687 47.9995 30.3642 47.9995 23.999ZM25.4995 34.499C25.4995 34.8968 25.3415 35.2784 25.0602 35.5597C24.7789 35.841 24.3973 35.999 23.9995 35.999C23.6017 35.999 23.2202 35.841 22.9389 35.5597C22.6575 35.2784 22.4995 34.8968 22.4995 34.499V17.12L16.0615 23.561C15.7799 23.8427 15.3978 24.0009 14.9995 24.0009C14.6012 24.0009 14.2192 23.8427 13.9375 23.561C13.6559 23.2794 13.4976 22.8974 13.4976 22.499C13.4976 22.1007 13.6559 21.7187 13.9375 21.437L22.9375 12.437C23.0768 12.2973 23.2424 12.1865 23.4246 12.1109C23.6068 12.0353 23.8022 11.9963 23.9995 11.9963C24.1968 11.9963 24.3922 12.0353 24.5744 12.1109C24.7566 12.1865 24.9222 12.2973 25.0615 12.437L34.0615 21.437C34.3432 21.7187 34.5014 22.1007 34.5014 22.499C34.5014 22.8974 34.3432 23.2794 34.0615 23.561C33.7799 23.8427 33.3978 24.0009 32.9995 24.0009C32.6012 24.0009 32.2192 23.8427 31.9375 23.561L25.4995 17.12V34.499Z" fill="#6C757D"/>
</svg>
