<svg width="65" height="64" viewBox="0 0 65 64" fill="none" xmlns="http://www.w3.org/2000/svg">
<rect x="0.5" width="64" height="64" rx="32" fill="#1DA3F3"/>
<g clip-path="url(#clip0_2612_163468)">
<path d="M26.552 45.9999C38.628 45.9999 45.234 35.9939 45.234 27.3319C45.234 27.0519 45.234 26.7679 45.222 26.4879C46.5081 25.5569 47.6181 24.4042 48.5 23.0839C47.2986 23.6136 46.0255 23.9627 44.722 24.1199C46.0951 23.2992 47.1234 22.0079 47.616 20.4859C46.326 21.2502 44.914 21.7867 43.442 22.0719C42.4524 21.018 41.1428 20.3198 39.7162 20.0854C38.2895 19.8511 36.8254 20.0938 35.5507 20.7758C34.2759 21.4578 33.2616 22.5412 32.6649 23.858C32.0682 25.1749 31.9224 26.6518 32.25 28.0599C29.6395 27.929 27.0856 27.2509 24.7541 26.0694C22.4225 24.888 20.3654 23.2296 18.716 21.2019C17.8787 22.6481 17.6231 24.3587 18.0013 25.9865C18.3794 27.6142 19.3629 29.037 20.752 29.9659C19.7111 29.9306 18.693 29.651 17.78 29.1499V29.2399C17.7818 30.7549 18.3066 32.2228 19.2657 33.3954C20.2249 34.5681 21.5595 35.3737 23.044 35.6759C22.4805 35.8312 21.8985 35.9085 21.314 35.9059C20.902 35.9072 20.4908 35.869 20.086 35.7919C20.5056 37.096 21.3225 38.2363 22.4225 39.0529C23.5224 39.8695 24.8503 40.3216 26.22 40.3459C23.8931 42.1735 21.0188 43.1647 18.06 43.1599C17.5386 43.1621 17.0176 43.1321 16.5 43.0699C19.503 44.9844 22.9906 46.001 26.552 45.9999Z" fill="white"/>
</g>
<defs>
<clipPath id="clip0_2612_163468">
<rect width="32" height="32" fill="white" transform="translate(16.5 16)"/>
</clipPath>
</defs>
</svg>
