<svg width="48" height="43" viewBox="0 0 48 43" fill="none" xmlns="http://www.w3.org/2000/svg">
<path d="M18.0059 14C18.0059 15.1935 17.5318 16.3381 16.6878 17.182C15.8439 18.0259 14.6993 18.5 13.5059 18.5C12.3124 18.5 11.1678 18.0259 10.3239 17.182C9.47996 16.3381 9.00586 15.1935 9.00586 14C9.00586 12.8065 9.47996 11.6619 10.3239 10.818C11.1678 9.9741 12.3124 9.5 13.5059 9.5C14.6993 9.5 15.8439 9.9741 16.6878 10.818C17.5318 11.6619 18.0059 12.8065 18.0059 14Z" fill="#6C757D"/>
<path d="M6.00586 0.5C4.41456 0.5 2.88844 1.13214 1.76322 2.25736C0.638 3.38258 0.00585938 4.9087 0.00585938 6.5V36.5C0.00585938 38.0913 0.638 39.6174 1.76322 40.7426C2.88844 41.8679 4.41456 42.5 6.00586 42.5H42.0059C43.5972 42.5 45.1233 41.8679 46.2485 40.7426C47.3737 39.6174 48.0059 38.0913 48.0059 36.5V6.5C48.0059 4.9087 47.3737 3.38258 46.2485 2.25736C45.1233 1.13214 43.5972 0.5 42.0059 0.5H6.00586ZM42.0059 3.5C42.8015 3.5 43.5646 3.81607 44.1272 4.37868C44.6898 4.94129 45.0059 5.70435 45.0059 6.5V26L33.6749 20.159C33.3935 20.0181 33.075 19.9692 32.7644 20.0193C32.4537 20.0693 32.1667 20.2158 31.9439 20.438L20.8139 31.568L12.8339 26.252C12.5457 26.0602 12.2001 25.9739 11.8557 26.0078C11.5112 26.0417 11.1891 26.1937 10.9439 26.438L3.00586 33.5V6.5C3.00586 5.70435 3.32193 4.94129 3.88454 4.37868C4.44715 3.81607 5.21021 3.5 6.00586 3.5H42.0059Z" fill="#6C757D"/>
</svg>
